<svg width="1250" height="1301" viewBox="0 0 1250 1301" fill="none" xmlns="http://www.w3.org/2000/svg">
<path d="M1245.9 567.499C1217.07 259.629 939.27 3.67944 630.7 1.19934C584.1 -0.50061 669.42 5.43945 676 7.99939C765.55 20.9395 845.97 49.2794 919.3 94.9994C1260.47 297.299 1327.28 798.169 1043.09 1079.7C997.39 1124.32 996.17 1124.36 953 1156.4C929.49 1171.17 925.3 1174.38 904 1186.2C901.61 1187.27 892.98 1190.69 891.44 1194.34C889.6 1198.69 894.76 1203.82 896.4 1207.61C1132.9 1088.2 1276.34 831.229 1245.9 567.499Z" fill="#C40707"/>
<path d="M891.5 1193.6C885.57 1194.6 876.15 1203.29 869.9 1205C865.74 1206.37 868.6 1211.78 867.5 1219.5C867.59 1260.1 836.18 1289.47 799.5 1295.6C795.76 1296.09 791.76 1297.1 795.5 1298C798.39 1299.98 800.21 1299.9 812.5 1300C826.65 1300.12 825.2 1299.48 831 1298C876.04 1290 913.47 1239.41 891.5 1193.6Z" fill="black"/>
<path d="M555.26 1079.5C552.2 1094.52 564.74 1225.01 551.91 1220.2C404.5 1207.02 265.35 1131.21 169.5 1020C-65.2399 763.33 3.34006 319.63 299.21 142.7C374.78 90.6597 493.22 56.6296 575.5 53.8997C530.46 50.1096 460.83 62.9097 422 74.4897C292.49 113.5 196.45 183.59 115.9 287.49C-66.3599 520.18 -27.15 888.07 199.01 1077.29C298.53 1163.04 433.43 1225.01 565.7 1221.7C566.18 1215.89 567.06 1119.02 565.02 1083.36C563.07 1083.59 553.22 1075.87 555.26 1079.5Z" fill="#C40707"/>
<path d="M904.4 695.499C886.27 681.079 874.28 664.769 876.9 699.999C893.51 707.009 886.37 713.279 882.9 725.499C831.16 876.469 766.63 1099.28 565.5 1074.4C495.44 1056.01 506.77 1056.87 565 1084.01C713.46 1109.1 800.01 991.999 848 867.499C863.77 829.199 877.06 792.639 890.5 754.409C892.49 736.499 913.44 709.929 904.4 695.499Z" fill="black"/>
<path d="M930 123.2C930 123.9 931.4 125.7 933.1 127.1L936.3 129.7L927.1 143.4C922 150.9 916.3 158.2 914.4 159.7C910 163 902.6 163.9 898.2 161.6C896.5 160.7 894.7 160 894.3 160C892.9 160 884.8 173.9 885.5 175C886.9 177.2 889.2 175.7 892.5 170.5L896.1 165L906.8 172.2C925.2 184.5 939.1 195.2 938.2 196.4C937.7 197 935.9 199.4 934.1 201.7C930.9 205.7 930.7 208 933.5 208C935.2 208 944 197.8 944 195.7C944 194.9 942.8 193.3 941.3 192.2C939.2 190.7 938.8 189.9 939.6 188.9C940.2 188.1 946.8 179.5 954.4 169.8L968.1 152.1L971.7 154.6C974 156.1 975.7 156.7 976.3 156.1C976.8 155.6 977 154.7 976.6 154.2C974.7 151 933.8 122 931.3 122C930.6 122 930 122.6 930 123.2ZM952.1 140.2C957.7 144.2 962.4 148 962.7 148.6C962.9 149.2 956.7 158.1 949 168.4L934.8 187L929.2 182.9C926.1 180.6 919.7 176.3 915.2 173.2C908.4 168.7 907.2 167.4 908.7 166.9C909.7 166.5 911.9 165.7 913.6 165C918.4 163.3 925.1 155.9 933.1 143.9C937 137.9 940.7 133 941.1 133C941.6 133 946.6 136.3 952.1 140.2Z" fill="black"/>
<path d="M591.3 178C564.3 191.4 546.1 201.9 524.7 216.1C477.8 247.4 440.1 281.9 407 323.4C346.7 399.2 310.4 491.6 302 590.5C301 603.1 300.6 625 301.5 625C301.8 625 306.8 620.8 312.8 615.7C349.9 583.6 398 551.1 440.3 529.6C476.9 511 502.1 502 547 491.6C579.6 484.1 584.8 483.5 616 483.6C646.8 483.7 651.5 484.3 691 493.4C729.5 502.2 755.2 511.6 790.7 529.6C833 551.1 881.1 583.6 918.2 615.7C924.2 620.8 929.2 625 929.5 625C930.4 625 930 603.1 929 590.5C922.4 513 898.8 439.5 859.4 374.4C810 292.5 738.3 227.6 645 180.5C634.8 175.4 623.9 170 620.8 168.7L615.1 166.1L591.3 178ZM647 255.4C668 258.5 680.9 261.2 698.8 266.1C726.7 273.7 758.4 287.6 777.4 300.5C789.8 309 791 310.2 791 315C791 317.4 790.3 319.8 789.4 320.7C788 322.1 787.5 322.1 783.7 320C770.3 312.8 744.6 300.4 732.5 295.2C687.7 276.2 654 268.6 614 268.6C562.5 268.6 513.6 283.3 452.1 317.4C447.5 319.9 443.4 322 442.9 322C442.4 322 442 318.8 442 315V308L448.3 303.4C469.1 288 497.5 275 529.3 266.1C574.2 253.5 611.2 250.2 647 255.4ZM650.8 306C706.5 314.4 746.7 326.3 786 345.9C808.3 357.1 831.3 371.9 836.4 378.3C837.9 380 839.5 382 840 382.7C841.3 384.3 841.3 391 840 391C839.5 391 838.8 392.1 838.4 393.5C837.7 396.5 835.8 396.7 832.2 394.2C820.5 386.1 776.9 364.1 751 353.3C717.4 339.2 692 332.1 657 326.8C637.4 323.8 595.8 323.5 577.5 326.3C537.5 332.3 512.7 339.6 475.1 356.1C453.4 365.7 420.3 383 405.2 392.6C402.3 394.5 399.3 396 398.6 396C396.8 396 396 392.8 396 385.4C396 379.9 396.3 379.1 399.3 376.3C407.3 368.6 431.2 353.3 449.9 344C482.9 327.5 524.8 314.7 567.5 308C575.2 306.8 583.5 305.5 586 305C588.5 304.6 601 304.2 613.8 304.1C632.6 304 639.8 304.4 650.8 306ZM662 364.4C743.8 378.9 802.1 402.4 859 443.9C870.2 452 879.4 460.4 881.5 464.4C882.6 466.4 883.8 468 884.2 468C885.7 468 885 476.1 883.5 477.7C882.6 478.5 881.6 480.5 881.3 482.1C881 483.7 880.1 485 879.4 485C878.2 485 870.4 480.4 857.2 471.8C854.1 469.7 848.6 466.4 845 464.3C841.4 462.2 836.3 459.1 833.5 457.3C830.8 455.5 828.1 454 827.6 454C827.1 454 825.9 453.4 825.1 452.6C821.4 449.4 765.3 421 762.6 421C762 421 760.2 420.1 758.5 419C756.9 417.9 754.9 417 754.2 417C753.5 417 751.1 416.1 748.7 415.1C719.8 402.1 675.3 391.3 636.3 387.9C622.8 386.7 591 387.3 580.5 388.9C577.2 389.4 569.8 390.6 564 391.4C539.6 395.1 509.6 403.2 490.5 411.1C487.8 412.3 483.3 414.1 480.5 415.2C471.2 418.9 467.6 420.6 444.7 432.1C418 445.5 418.6 445.2 406.2 452.6C390.5 461.9 388.8 463 371.6 474.2C362.5 480.2 354.5 485 353.8 485C351.8 485 350 477.9 350 470.4V463.7L357.3 456.5C373.6 440.5 406.2 418.7 434 405.3C478.2 383.9 522.3 370.9 580.5 362C583.8 361.5 600.2 361.3 617 361.5C644.2 361.8 649.1 362.1 662 364.4ZM667.5 428.4C740.3 443.1 792.2 463.7 843 498.1C878.7 522.3 906 548.3 906 558.2C906 559.6 904.4 569.8 903.3 575.2C903 576.8 902.3 578 901.8 578C901.3 578 897.4 575.4 893.2 572.2C853.4 542 811 515 774 496.5C730.2 474.5 695.7 464 646 457.4C631.9 455.5 601.1 455.3 587.5 456.9C570.9 458.9 544.3 463.9 530.2 467.5C475.5 481.9 406.8 519 336.8 572.2C328.6 578.4 327 579.1 327 576.1C327 575.1 326.3 572.6 325.5 570.7C323 564.6 323.6 556.3 326.9 550.5C332.9 540.1 360.2 516.3 387 498.1C437.9 463.6 490.7 442.7 562.4 428.5C575 426 585.6 423.7 585.9 423.4C586.2 423 599.6 423 615.5 423.3L644.5 423.8L667.5 428.4Z" fill="black"/>
<path d="M979.5 177.3C974 179.9 969.2 184.8 965.8 191.3C962.7 197.1 962.6 209.4 965.7 216.1C972.4 231.1 989.6 238.5 1004.4 233C1029.3 223.6 1029.6 190.7 1004.8 177.9C1001.7 176.3 998.3 175.5 992.5 175.3C985.6 175 983.8 175.2 979.5 177.3ZM1003.7 181.8C1009.4 184.8 1016.4 192.9 1018 198.5C1022.6 214.8 1010 230.4 992.5 230.3C985.3 230.2 980.2 228 974.8 222.3C969.9 217.2 967.9 212 967.8 204.4C967.7 190 979.9 178.3 994.1 179.4C997.1 179.6 1001.5 180.7 1003.7 181.8Z" fill="black"/>
<path d="M1044 221.4C1044 222.1 1045 224 1046.1 225.4C1048.2 228.1 1048.2 228.2 1046.4 229.9C1040.9 235.1 1012.8 259 1012.3 259C1011.9 259 1010.4 257.8 1008.8 256.3C1006.5 254.1 1006 253.9 1005.4 255.3C1005.1 256.2 1005.6 258 1006.7 259.3C1012.8 266.9 1016.6 271 1017.7 271C1019.9 271 1020 269.3 1017.9 266.6C1016.8 265.2 1016 263.6 1016.2 263.1C1016.4 262.6 1020.3 259 1024.9 255.1L1033.4 248L1035.7 250.2C1037 251.4 1039.2 254.8 1040.6 257.7C1043.9 264.3 1043.6 267 1037.9 282.1L1033.8 293L1037.2 297.7C1040.6 302.4 1044 304.5 1044 301.8C1044 301 1042.7 298.6 1041.1 296.4L1038.3 292.5L1042.1 282.5C1045.5 273.7 1046 271.6 1045.8 265.2C1045.5 259.1 1045.7 258.1 1047 258.6C1047.8 258.9 1054 259.5 1060.8 259.9C1072.5 260.7 1073.3 260.9 1076.1 263.6L1079.1 266.4L1076.1 269.2C1072.9 272.2 1072.9 275 1075.9 275C1076.9 275 1079.4 273.5 1081.4 271.7L1085.2 268.5L1082.1 264.3C1077.5 257.9 1074.4 256.8 1059.9 256.1C1049.4 255.5 1047 255.1 1044.8 253.4C1041.8 251.1 1036.6 245.1 1037.1 244.7C1037.3 244.5 1040.5 241.8 1044.1 238.7C1047.7 235.6 1051.2 233 1051.7 233C1052.2 233 1053.7 234.1 1055 235.5C1057.3 237.9 1060 238.8 1060 237.2C1060 236 1057.1 232.1 1051.7 225.7C1046.9 220.2 1044 218.5 1044 221.4Z" fill="black"/>
<path d="M1082.8 282.2C1075.5 287.2 1073.5 290 1076 291.5C1076.6 291.9 1079.9 290.3 1083.4 288.1C1086.8 285.8 1090 284 1090.3 284C1091.2 284 1102 300.4 1102 301.7C1102 302.3 1064.9 325.7 1062.1 326.8C1061.8 326.9 1059.8 324.3 1057.7 321C1054 315.1 1052.7 314 1051.5 316C1050.4 317.7 1067.2 345 1069.3 345C1071.1 345 1071.6 343.1 1070.2 341.4C1069.7 340.9 1068.1 338.4 1066.7 335.9L1064 331.2L1084.6 318.9C1101.1 309.1 1105.3 306.9 1106.1 308.1C1106.6 308.9 1109.1 313.1 1111.6 317.4C1116.9 326.4 1117 325.8 1107.8 330.6C1102.3 333.4 1101.7 334.2 1103.3 336.3C1104.4 337.8 1105.3 337.6 1112.5 333.9C1116.9 331.6 1120.9 329.4 1121.4 328.9C1122.5 327.9 1111.1 307.6 1099.4 289.7C1094.8 282.7 1090.9 277 1090.8 277C1090.6 277 1087 279.4 1082.8 282.2Z" fill="black"/>
<path d="M1108.3 356.699C1102.2 358.799 1094.7 365.899 1092 372.199C1088.8 379.399 1088.6 390.599 1091.7 397.099C1094.7 403.699 1100.3 409.499 1106.8 412.699C1111.6 415.099 1113.7 415.499 1120 415.399C1128.7 415.299 1133.2 413.599 1139.2 408.199C1145.1 402.799 1148 396.199 1148 387.399C1148 383.499 1147.3 378.399 1146.5 375.899C1142.4 363.899 1130.5 354.899 1118.7 355.099C1115.3 355.099 1110.6 355.799 1108.3 356.699ZM1130.4 362.799C1139.2 367.499 1144 375.999 1144 386.699C1144 393.099 1142.4 397.399 1138 402.399C1132.7 408.299 1127.8 410.499 1119 410.499C1110.5 410.499 1105.7 408.499 1100.4 402.799C1095.4 397.499 1093.7 393.199 1093.6 385.999C1093.4 372.799 1101.9 362.599 1115.5 359.699C1119.2 358.899 1125.5 360.199 1130.4 362.799Z" fill="black"/>
<path d="M1159.5 424C1159.1 424.6 1159.4 426.6 1160 428.6C1160.7 430.5 1161 432.3 1160.8 432.5C1160.3 433 1117.3 446 1116.2 446C1115.6 446 1114.6 444.4 1114 442.5C1112.7 438.7 1110 437.7 1110 441.1C1110 442.3 1111.1 446.9 1112.4 451.4C1113.8 455.8 1115.6 462.1 1116.4 465.2C1117.5 468.9 1118.6 471 1119.5 471C1121.5 471 1121.4 467.9 1119 459.5C1117.9 455.7 1117 452.2 1117 451.8C1117 451.1 1134 445.6 1134.5 446.2C1134.6 446.4 1135.9 451.1 1137.5 456.7C1142 473.3 1148.7 481.5 1158 481.5C1163.8 481.5 1167.3 479.3 1170.2 473.7C1173.7 467.1 1173.2 459.4 1168 441.5C1165.7 433.2 1163.3 425.7 1162.8 424.7C1161.8 422.8 1160.4 422.5 1159.5 424ZM1164.4 443.2C1168.5 457.4 1169.3 462.4 1168.1 466.7C1164.8 478.9 1153.7 480.2 1146.6 469.3C1144.5 466.1 1140.1 453.1 1138.8 446.6C1138.6 445.1 1140.4 444.2 1149.5 441.5C1155.6 439.6 1161 438.1 1161.7 438.1C1162.3 438 1163.5 440.4 1164.4 443.2Z" fill="black"/>
<path d="M64.1003 584.2C63.6003 585.5 62.9003 589.7 62.5003 593.5L61.8003 600.6L75.2003 613.5C82.5003 620.7 93.1003 630.5 98.8003 635.4C104.4 640.3 109 644.4 109 644.5C109 645 69.5003 643.9 66.3003 643.4C63.1003 642.9 63.1003 642.9 62.8003 636.2C62.6003 631 62.2003 629.5 61.0003 629.5C59.8003 629.5 59.4003 631.9 58.8003 642.5C58.1003 656.6 58.4003 659 60.6003 659C61.6003 659 62.0003 657.7 62.0003 654.6C62.0003 652.1 62.5003 649.8 63.0003 649.5C63.6003 649.1 74.6003 649.2 87.5003 649.6L111 650.3V654.6C111 657.8 111.4 659 112.5 659C114 659 114.2 657.2 114.4 646.2C114.5 643.9 112.7 641.9 103.5 634C88.6003 621.1 67.2003 599.8 68.7003 599.3C69.3003 599.1 79.6003 600 91.5003 601.4C103.4 602.8 113.3 604 113.5 604C113.6 604 113.5 606.1 113.2 608.6C112.8 612.7 112.9 613.2 114.6 612.8C116.2 612.5 116.7 611 117.7 604C119.4 591.6 119.3 589.8 117.3 590.2C116 590.4 115.3 591.8 115 594.5C114.4 599.2 117 599.1 89.1003 595.5C78.4003 594.1 69.0003 593 68.3003 593C67.2003 593 66.9003 591.8 67.0003 588.7C67.1003 586.4 67.1003 583.9 67.1003 583.2C66.9003 581.2 65.0003 581.8 64.1003 584.2Z" fill="black"/>
<path d="M42.6999 596.699C41.1999 598.199 42.0999 601.899 44.0999 602.499C45.1999 602.899 46.9999 604.599 48.0999 606.299C52.6999 613.999 48.3999 631.999 41.8999 631.999C39.9999 631.999 38.3999 635.299 39.4999 636.999C41.5999 640.299 47.8999 636.199 51.4999 629.099C53.6999 624.699 54.5999 611.799 52.9999 606.099C51.2999 599.699 45.1999 594.099 42.6999 596.699Z" fill="black"/>
<path d="M627.2 603.499C618.6 607.799 613.4 613.699 605.7 627.499C599.5 638.699 595.5 650.299 594.5 659.999C593.7 667.999 594.9 672.799 603.1 692.899C606.4 700.799 610.6 712.799 612.6 719.399C628.3 772.799 628.7 782.299 616.2 800.599C611.2 807.999 605.4 811.399 597.3 811.499C593.2 811.499 591.6 811.999 589.5 813.999C587.2 816.099 586.9 817.099 587.3 820.299C587.6 822.399 588.6 824.999 589.4 825.899C591 827.599 591.3 827.499 596.8 824.799C604.8 820.799 612 816.299 615.4 813.199C620.1 808.899 629.9 796.099 631.6 792.099C634.2 786.399 634.7 769.399 632.5 761.699C629.5 750.999 622.2 729.199 620.2 725.299C616.3 717.699 604 675.899 604 670.599C604 663.699 609 647.199 613.2 640.299C617.3 633.299 625.3 624.399 629.2 622.399C631.2 621.399 633.4 621.099 636 621.499C642.8 622.699 649 617.799 649 611.199C649 606.399 647.4 604.099 642.7 601.899C636.9 599.299 635.3 599.499 627.2 603.499Z" fill="black"/>
<path d="M111 676.4V680.7L99.8 681.3C93.6 681.7 82.8 682.3 75.8 682.6L63 683.3V679.8C63 677.9 62.4 675.5 61.6 674.4C60.2 672.6 60.1 672.6 59.4 674.3C58.4 677.1 59.6 697 60.9 698.3C62.7 700.1 64 697.1 63.4 692.8L62.8 689.2L69.1 688.6C78.6 687.7 110.3 685.9 110.5 686.2C110.6 686.4 111.1 688.3 111.6 690.4C112.1 692.6 113.1 694.5 113.8 694.8C114.7 695.1 115 692.6 115 685.2C115 674.3 114.5 672 112.4 672C111.4 672 111 673.3 111 676.4Z" fill="black"/>
<path d="M332.5 679.899C323.78 684.989 316.94 691.389 309.1 699.499C313.31 717.169 319.48 735.299 325.4 752.299C353.73 836.689 392.98 917.339 442 991.099C445.9 995.239 472.98 1029.48 460.4 1012C456.82 1006.64 455.09 1006.34 454 1003.8C396.4 914.819 351.93 813.769 325 711.099C324.73 708.929 335.51 703.169 338.5 701.299C336.97 695.309 342.87 672.049 332.5 679.899Z" fill="black"/>
<path d="M97.1998 695.1C89.9998 697.2 86.4998 708.3 88.1998 723.4C88.5998 727.7 88.8998 731.4 88.7998 731.5C88.5998 731.6 83.8998 732.3 78.2998 733.2L67.9998 734.7L67.3998 731.1C66.5998 726 66.1998 725 64.9998 725C62.9998 725 62.8998 727.8 64.6998 738.6C66.1998 747.7 66.7998 749.5 68.3998 749.8C70.0998 750.2 70.1998 749.7 69.5998 745.1C69.1998 742.3 69.2998 740 69.6998 740C70.0998 740 80.0998 738.4 91.7998 736.5C117.5 732.3 117 732.3 117 735.4C117 738.9 118 741 119.6 741C120.4 741 121 740 121 738.7C121 734.8 117 709.1 116 706.4C114.1 701.6 110.7 697.8 106.6 695.9C102 693.8 101.8 693.8 97.1998 695.1ZM108.8 703.3C112.6 707.2 113.6 710.1 114.5 720.2L115.2 727.6L104.4 729.2C98.3998 730.1 93.3998 730.7 93.2998 730.6C93.1998 730.5 92.5998 727 91.9998 723C89.9998 708.9 93.7998 700 101.8 700C104.8 700 106.3 700.7 108.8 703.3Z" fill="black"/>
<path d="M121.5 754.1C121.2 754.9 121.1 757.1 121.2 759L121.5 762.4L98.9998 767.7C86.5998 770.5 76.1998 772.9 75.7998 772.9C75.4998 773 74.8998 771.7 74.4998 770C73.7998 766.7 72.2998 765.3 70.8998 766.7C69.8998 767.7 73.5998 785.6 75.1998 787.7C77.0998 790.1 78.1998 787.9 77.4998 783.1L76.8998 778.4L86.1998 776.2C91.2998 775 95.9998 774 96.5998 774C97.2998 774 98.0998 775.7 98.4998 777.7C98.8998 779.7 101 787.7 103.2 795.3C105.4 803 106.8 809.6 106.3 810C105.5 810.8 89.5998 816 88.0998 816C87.6998 816 86.5998 814.2 85.6998 811.9C83.8998 807.4 81.2998 807 81.7998 811.4C82.3998 816.7 87.4998 829.5 88.9998 829.5C90.4998 829.5 90.5998 828.7 89.8998 824.1C89.4998 821.8 90.3998 821.4 111.5 814.3C123.6 810.3 133.8 807 134.2 807C134.5 807 135.4 808.6 136 810.5C137.2 814.1 140 815.3 140 812.2C140 811.2 138.7 806.6 137.2 802C135.2 796 133.8 793.4 132.5 793.1C131 792.9 130.8 793.3 131.3 795.6C131.6 797.2 132.2 799.3 132.5 800.2C133.1 801.6 131.4 802.4 122.3 805.3L111.5 808.7L109.2 801.7C104.3 786.7 101.1 772.9 102.3 772.5C107.1 770.9 123.1 767.3 123.4 767.9C123.6 768.2 124.1 770 124.5 771.7C125.1 774.7 127.2 776.1 128.3 774.2C128.6 773.8 127.8 769.4 126.7 764.3C124.5 754.9 122.6 751.3 121.5 754.1Z" fill="black"/>
<path d="M141.4 824.599C143.5 830.099 143.3 830.799 137.2 838.199C130.5 846.399 127 852.699 127 856.599C127 858.699 126.7 859.099 125.3 858.499C124.3 858.099 119.3 856.999 114.2 855.899C104.4 853.899 102.1 853.099 100.1 850.599C99 849.299 99.4 848.899 102.5 847.599C105.1 846.499 106.1 845.499 105.8 844.299C105.4 841.899 102.2 841.599 97.7 843.499C93.3 845.299 93.1 846.799 96.5 852.599C99.3 857.399 102.5 858.699 116.9 860.999C122.6 861.999 124.9 862.799 126.9 864.799L129.5 867.399L120 871.799C114.8 874.199 110.4 875.799 110.3 875.399C110.1 874.899 109.1 872.999 108 871.199C105.8 867.699 104 866.999 104 869.699C104 872.299 113.3 890.399 114.8 890.799C116.4 891.299 116.3 887.599 114.6 884.099L113.1 881.399L121.6 877.199C126.2 874.899 130.5 872.999 131 872.999C133.5 872.999 131.6 880.099 126.4 890.499C121.1 901.099 120.9 901.799 121.9 905.599C124.1 913.799 127.5 914.899 133.7 909.599C136.3 907.299 136.4 906.999 134.9 905.499C133.4 903.999 133 903.899 130.2 905.399C126.1 907.499 126 907.499 126 903.999C126 902.299 128.3 896.399 131.3 890.599L136.7 880.299L140.6 882.299C143.7 883.899 147 884.399 157.1 884.799L169.6 885.299L171.3 888.099C172.2 889.699 173.4 890.999 174 890.999C175.7 890.999 175.1 887.399 172.9 883.599L170.8 879.999H159.2C152.7 879.999 145.9 879.499 143.9 878.999C140.2 877.999 135 873.599 135 871.599C135.1 869.799 156.3 860.299 156.8 861.799C157 862.499 158.3 864.299 159.5 865.799C163.8 870.799 163.5 865.999 158.8 856.399C154.4 847.299 151.3 844.099 152.2 849.599C152.5 851.199 153 853.299 153.4 854.199C154 855.599 152.2 856.799 143.4 860.899C137.5 863.699 132.6 865.999 132.4 865.999C132.2 865.999 131.7 864.499 131.2 862.699C129.6 856.599 131.5 852.399 142.3 839.299L148.2 832.099L146.5 827.499C145.2 824.299 144.2 822.999 142.8 822.999C141.4 822.999 141 823.499 141.4 824.599Z" fill="black"/>
<path d="M177.2 907.7C173.2 910.1 170 912.8 170 913.6C170 916.4 173.1 916.2 178.3 913C184.3 909.3 182.3 907.7 195 926C199.7 932.7 204.1 938.9 204.8 939.9C205.9 941.5 205.1 942.4 198 947.9C193.6 951.3 189.5 954.3 188.8 954.5C188 954.8 185.3 951.9 182.3 947.7L177 940.5L179.6 938.4C182.2 936.3 182.1 933 179.3 933C176.9 933 166 941.3 166 943.1C166 945.5 168.4 946.1 170.9 944.4C172.1 943.6 173.4 943.1 173.9 943.4C174.3 943.7 177 947.1 179.8 950.9L184.8 957.8L177 963.9C172.6 967.3 168.6 970 168.1 970C166.7 970 146 940.7 146 938.7C146 938.4 148 936.9 150.5 935.3C155.1 932.4 155.6 931.5 154.1 929.1C153 927.4 151.9 927.8 144.6 932.5L138.9 936.1L140.6 938.9C148.1 951.5 172.5 984 174.6 984C176.6 984 176.3 981.7 174 978.7C172.9 977.3 172 975.8 172 975.3C172.1 974.9 180.4 968 190.6 960.1L209.2 945.7L212.1 948.9C214.8 951.9 217.7 952.3 216.6 949.5C216.4 948.8 212 942.6 206.9 935.8C201.8 929.1 194.7 918.9 191 913.3L184.4 903.2L177.2 907.7Z" fill="black"/>
<path d="M231.6 959.1C228.5 961.9 226 964.6 226 965C226 965.5 227.1 967.1 228.4 968.7L230.7 971.5L215.3 985.5C193.6 1005.1 195.6 1003.9 191.6 1000.1C187.9 996.5 187 996.3 187 998.8C187 1002.3 224.8 1040.9 228.3 1041C230.8 1041 230.4 1039.2 227 1035.8L224 1032.8L234.2 1021.9C250.6 1004.3 256.4 1001.8 267.1 1007.7L272.1 1010.5L275.6 1006.5C280.9 1000.4 282.3 998.2 281.6 996.5C280.7 994.1 279.4 994.7 274.9 999.5C272.6 1002 270.3 1004 269.8 1004C268.6 1004 238.8 974.7 234.7 969.6L231.6 965.8L236.4 961.3C239 958.9 241 956.4 240.7 955.7C239.9 953.1 237 954.1 231.6 959.1ZM255 1001.1C247.8 1002.1 244.3 1004.5 231.4 1017.2L219.3 1029.1L209.1 1018.5L198.9 1007.9L206.2 1001.1C210.2 997.4 218.1 990.1 223.8 984.8L234.1 975.3L246.8 987.9L259.5 1000.5L255 1001.1Z" fill="black"/>
<path d="M279 1016.5C279 1017.3 280 1018.6 281.3 1019.5L283.6 1021L280.4 1037.2C278.6 1046.2 276.2 1059.3 275.2 1066.3L273.3 1079.1L282.4 1085.4C299.5 1097.3 302 1098.5 302 1095.2C302 1094.2 299.1 1091.6 294.5 1088.6C285.8 1083 285.2 1084.2 300.4 1076.1C305.8 1073.2 315.4 1067.7 321.7 1063.9C332.8 1057.2 333.3 1057 336.6 1058.2C340.4 1059.5 342.1 1058.7 339.9 1056.5C337.7 1054.2 322.7 1045 321.3 1045C318.4 1045 319.3 1047.2 323.5 1050.2C326 1051.9 328 1053.7 328 1054C328 1054.3 325.1 1056.3 321.5 1058.4L315 1062.2L302.3 1053.2C282.7 1039.4 284.4 1041.7 286 1032.7C286.7 1028.4 287.5 1025 287.7 1025C288 1025 289.9 1026.3 292 1028C296 1031.2 299 1031.9 299 1029.7C299 1028.1 282.5 1015 280.5 1015C279.7 1015 279 1015.7 279 1016.5ZM297.8 1054.9C309.7 1063.2 310.9 1064.4 309.3 1065.5C308.3 1066.2 301.8 1069.7 294.9 1073.4C281.6 1080.4 279 1080.8 279 1076.1C278.9 1071.9 283.3 1044.9 284 1045.2C284.3 1045.4 290.5 1049.7 297.8 1054.9Z" fill="black"/>
<path d="M350.4 1064.2C349.7 1065.3 351.5 1067.1 355.4 1069.5C356.9 1070.4 355.7 1073.1 345.9 1091.3C336.9 1108.2 334.5 1112 333.1 1111.4C332.2 1111 330.6 1110.7 329.5 1110.6C325.1 1110.4 327.1 1112.7 335.1 1117.2C343.1 1121.8 348 1123.2 348 1121C348 1120.1 343 1116.5 340.6 1115.7C339.5 1115.3 348.7 1097 350 1097C350.6 1097 355 1099 359.8 1101.4C364.6 1103.8 371.9 1107.2 376 1109C380.1 1110.8 383.8 1112.5 384.3 1112.9C384.7 1113.3 383.3 1117.6 381.1 1122.6C377 1132.1 377.3 1131.8 370.3 1130.4C367.7 1129.9 367 1130.1 367 1131.3C367 1132.7 380 1139 386.3 1140.5C390.5 1141.6 389.9 1138.3 385.5 1136.5L382.1 1135L384.1 1130.3C385.2 1127.6 389.3 1117.7 393.2 1108.2C399.7 1092.4 400.5 1090.9 402.4 1091.4C408.5 1093.2 410 1093.2 410 1091.7C410 1090.3 392.3 1082 389.3 1082C386.7 1082 388.1 1085.1 391.5 1086.7C393.4 1087.6 395 1088.7 395 1089.1C395 1089.5 393.1 1094.2 390.9 1099.5C387.2 1108 386.5 1109 384.6 1108.4C381.1 1107.4 352 1093.2 352 1092.6C352 1091.9 360.9 1073.8 361.6 1073.1C361.8 1072.9 363.8 1073.5 366 1074.5C370.1 1076.3 371.6 1076.1 370.7 1073.8C370.3 1072.7 353.2 1063 351.7 1063C351.4 1063 350.8 1063.5 350.4 1064.2Z" fill="black"/>
<path d="M793.5 1133.9C815.08 1139.83 827.98 1143.45 841.5 1156.2C848.73 1170 874.79 1156.32 867.8 1150.7C852.01 1134.59 812.26 1129.98 793.5 1133.9Z" fill="black"/>
<path d="M764.5 1137.7C695.69 1150.68 679.06 1247.49 738.5 1284.4C747.58 1293.84 791.97 1300.26 778.8 1292C712.41 1272.18 709.85 1167.83 772.5 1142.8C775.29 1141.1 779.29 1139.1 781.49 1138.4C791.24 1135.92 764.38 1137.75 764.5 1137.7Z" fill="black"/>
<path d="M787.6 1186.6C753.02 1195.67 759.47 1252.4 797 1250.4C845.95 1250.86 834.28 1173.01 787.6 1186.6Z" fill="black"/>
</svg>
