<svg width="180" height="70" viewBox="0 0 180 70" fill="none" xmlns="http://www.w3.org/2000/svg">
<path d="M26.4537 0.946289C26.5011 0.946317 26.5468 0.963732 26.5822 0.995261L51.9208 23.5666C51.9501 23.5932 51.9708 23.628 51.9803 23.6665C51.9896 23.7049 51.9872 23.7454 51.9733 23.7825C51.9594 23.8193 51.9346 23.851 51.9023 23.8733C51.8699 23.8957 51.8316 23.9076 51.7923 23.9076H1.12956C1.09027 23.9076 1.05192 23.8957 1.01959 23.8733C0.987253 23.851 0.962463 23.8193 0.94852 23.7825C0.93468 23.7454 0.932284 23.7049 0.941646 23.6665C0.95101 23.628 0.971696 23.5932 1.00102 23.5666L26.3306 0.995261C26.3648 0.965217 26.4082 0.947916 26.4537 0.946289ZM51.2799 23.5176L26.4537 1.40341L1.65096 23.5176H51.2799Z" fill="#373737" stroke="#373737" stroke-miterlimit="10"/>
<path d="M51.7987 23.5167C51.8263 23.5166 51.8536 23.5228 51.8784 23.5348C51.9134 23.5503 51.9431 23.5757 51.9637 23.608C51.9843 23.6402 51.9949 23.678 51.9943 23.7163V68.8553C51.9949 68.8936 51.9843 68.9313 51.9637 68.9636C51.9431 68.9959 51.9134 69.0213 51.8784 69.0367C51.8443 69.0521 51.8064 69.0573 51.7694 69.0516C51.7324 69.0457 51.6979 69.0293 51.6702 69.004L26.3297 46.4327C26.3093 46.4145 26.2929 46.3921 26.2817 46.3671C26.2704 46.3422 26.2646 46.315 26.2646 46.2876C26.2646 46.2601 26.2704 46.2331 26.2817 46.208C26.2929 46.1831 26.3093 46.1606 26.3297 46.1425L51.6612 23.5657C51.6993 23.5328 51.7484 23.5153 51.7987 23.5167ZM51.605 68.42V24.1462L26.7606 46.2767L51.605 68.42Z" fill="#373737" stroke="#373737" stroke-miterlimit="10"/>
<path d="M1.12817 23.5168C1.17547 23.5173 1.22103 23.5347 1.25672 23.5657L26.5881 46.1389C26.6085 46.1571 26.625 46.1795 26.6361 46.2045C26.6473 46.2294 26.6531 46.2566 26.6531 46.284C26.6531 46.3115 26.6473 46.3385 26.6361 46.3636C26.625 46.3885 26.6085 46.411 26.5881 46.4291L1.25672 69.0004C1.22909 69.0259 1.19459 69.0425 1.15754 69.0484C1.1205 69.0542 1.08256 69.0489 1.04851 69.0332C1.01348 69.0178 0.983789 68.9923 0.963168 68.96C0.942547 68.9277 0.931929 68.8901 0.932652 68.8517V23.7127C0.931929 23.6743 0.942547 23.6367 0.963168 23.6044C0.983789 23.5721 1.01348 23.5467 1.04851 23.5313C1.07363 23.5205 1.10087 23.5155 1.12817 23.5168ZM26.1663 46.284L1.32189 24.1534V68.42L26.1663 46.284Z" fill="#373737" stroke="#373737" stroke-miterlimit="10"/>
<path d="M34.8214 8.30957C34.8554 8.30973 34.8888 8.31866 34.9182 8.33551C34.9477 8.35235 34.9723 8.37653 34.9899 8.40572C35.0067 8.43528 35.0155 8.46873 35.0155 8.50276C35.0155 8.5368 35.0067 8.57024 34.9899 8.59981L26.6312 23.5597L51.9571 68.7586L51.6149 68.9509L26.4121 23.9642L1.29251 68.9509L0.952148 68.7694L26.1894 23.5705L17.8487 8.68144C17.8314 8.65206 17.8223 8.61854 17.8223 8.5844C17.8223 8.55025 17.8314 8.51672 17.8487 8.48734C17.8658 8.45808 17.8901 8.43371 17.9192 8.41655C17.9484 8.3994 17.9815 8.39004 18.0153 8.38939L34.816 8.32046L34.8214 8.30957ZM26.4157 23.1607L34.4883 8.70139L18.3539 8.76851L26.4157 23.1607Z" fill="#373737" stroke="#373737" stroke-miterlimit="10"/>
<path d="M75.7007 43.5135V28.6206L76.1483 29.0746H70.1943V27.6216H82.841V29.0746H76.9094L77.3346 28.6206V43.5135H75.7007ZM85.7484 43.5135V27.6216H92.262C93.918 27.6216 95.2162 27.9698 96.1563 28.666C97.1113 29.347 97.5888 30.3535 97.5888 31.6854C97.5888 33.0022 97.1337 34.0011 96.2235 34.6822C95.3132 35.3481 94.1194 35.6811 92.6425 35.6811L93.023 35.1135C94.7685 35.1135 96.0966 35.4616 97.0069 36.1579C97.9171 36.8541 98.3723 37.8757 98.3723 39.2227C98.3723 40.5849 97.8948 41.6443 96.9397 42.4011C95.9996 43.1427 94.582 43.5135 92.6873 43.5135H85.7484ZM87.3824 42.1741H92.6873C94.015 42.1741 95.0222 41.9243 95.7086 41.4249C96.3951 40.9254 96.7383 40.1535 96.7383 39.1092C96.7383 38.08 96.3951 37.3233 95.7086 36.8389C95.0222 36.3546 94.015 36.1125 92.6873 36.1125H87.3824V42.1741ZM87.3824 34.8184H92.1724C93.3808 34.8184 94.3059 34.5762 94.9476 34.0919C95.6042 33.5925 95.9325 32.8584 95.9325 31.8898C95.9325 30.9211 95.6042 30.1946 94.9476 29.7103C94.3059 29.2108 93.3808 28.9611 92.1724 28.9611H87.3824V34.8184ZM109.386 43.6498C108.207 43.6498 107.11 43.453 106.095 43.0595C105.096 42.6508 104.223 42.0833 103.477 41.3568C102.745 40.6152 102.171 39.76 101.753 38.7914C101.35 37.8076 101.149 36.733 101.149 35.5676C101.149 34.4022 101.35 33.3352 101.753 32.3665C102.171 31.3827 102.745 30.5276 103.477 29.8011C104.223 29.0595 105.096 28.4919 106.095 28.0984C107.095 27.6898 108.192 27.4854 109.386 27.4854C110.565 27.4854 111.654 27.6898 112.654 28.0984C113.654 28.4919 114.519 29.0519 115.25 29.7784C115.996 30.5049 116.571 31.36 116.974 32.3438C117.392 33.3276 117.601 34.4022 117.601 35.5676C117.601 36.733 117.392 37.8076 116.974 38.7914C116.571 39.7752 115.996 40.6303 115.25 41.3568C114.519 42.0833 113.654 42.6508 112.654 43.0595C111.654 43.453 110.565 43.6498 109.386 43.6498ZM109.386 42.1514C110.326 42.1514 111.191 41.9925 111.982 41.6746C112.788 41.3416 113.482 40.88 114.064 40.2898C114.661 39.6843 115.123 38.9881 115.452 38.2011C115.78 37.3989 115.944 36.5211 115.944 35.5676C115.944 34.6141 115.78 33.7438 115.452 32.9568C115.123 32.1546 114.661 31.4584 114.064 30.8681C113.482 30.2627 112.788 29.8011 111.982 29.4833C111.191 29.1503 110.326 28.9838 109.386 28.9838C108.446 28.9838 107.573 29.1503 106.767 29.4833C105.961 29.8011 105.26 30.2627 104.663 30.8681C104.081 31.4584 103.618 32.1546 103.275 32.9568C102.947 33.7438 102.783 34.6141 102.783 35.5676C102.783 36.506 102.947 37.3762 103.275 38.1784C103.618 38.9806 104.081 39.6843 104.663 40.2898C105.26 40.88 105.961 41.3416 106.767 41.6746C107.573 41.9925 108.446 42.1514 109.386 42.1514ZM121.553 43.5135V27.6216H123.187V40.7892L133.215 27.6216H134.715V43.5135H133.081V30.3687L123.053 43.5135H121.553ZM128.089 26.4638C126.97 26.4638 126.082 26.2065 125.425 25.6919C124.784 25.1773 124.455 24.4584 124.441 23.5352H125.672C125.687 24.1406 125.91 24.6173 126.343 24.9654C126.791 25.3135 127.373 25.4876 128.089 25.4876C128.805 25.4876 129.38 25.3135 129.813 24.9654C130.26 24.6173 130.492 24.1406 130.506 23.5352H131.738C131.723 24.4584 131.387 25.1773 130.73 25.6919C130.074 26.2065 129.193 26.4638 128.089 26.4638ZM79.4387 66.3525C78.2598 66.3525 77.1705 66.1557 76.1707 65.7622C75.1709 65.3535 74.3054 64.786 73.5742 64.0595C72.843 63.333 72.2685 62.4779 71.8507 61.4941C71.4478 60.5103 71.2464 59.4357 71.2464 58.2703C71.2464 57.1049 71.4478 56.0303 71.8507 55.0465C72.2685 54.0627 72.843 53.2076 73.5742 52.4811C74.3203 51.7546 75.1933 51.1946 76.1931 50.8011C77.1929 50.3925 78.2822 50.1881 79.4611 50.1881C80.5952 50.1881 81.6621 50.3849 82.6619 50.7784C83.6617 51.1568 84.5048 51.7319 85.1912 52.5038L84.1392 53.5708C83.4976 52.9049 82.7887 52.4281 82.0128 52.1406C81.2368 51.8379 80.4012 51.6865 79.5058 51.6865C78.5657 51.6865 77.6928 51.853 76.887 52.186C76.0812 52.5038 75.3798 52.9654 74.7829 53.5708C74.186 54.1611 73.716 54.8573 73.3728 55.6595C73.0445 56.4465 72.8803 57.3168 72.8803 58.2703C72.8803 59.2238 73.0445 60.1016 73.3728 60.9038C73.716 61.6908 74.186 62.3871 74.7829 62.9925C75.3798 63.5827 76.0812 64.0443 76.887 64.3773C77.6928 64.6952 78.5657 64.8541 79.5058 64.8541C80.4012 64.8541 81.2368 64.7027 82.0128 64.4C82.7887 64.0973 83.4976 63.613 84.1392 62.947L85.1912 64.0141C84.5048 64.786 83.6617 65.3687 82.6619 65.7622C81.6621 66.1557 80.5877 66.3525 79.4387 66.3525ZM91.5264 66.2162V51.3233L91.9741 51.7773H86.0202V50.3243H98.667V51.7773H92.7352L93.1605 51.3233V66.2162H91.5264ZM98.4814 66.2162L105.644 50.3243H107.278L114.441 66.2162H112.695L106.114 51.3006H106.786L100.205 66.2162H98.4814ZM101.302 61.9708L101.794 60.6087H110.904L111.397 61.9708H101.302ZM117.444 66.2162V50.3243H123.308C124.636 50.3243 125.778 50.5438 126.733 50.9827C127.688 51.4065 128.419 52.027 128.927 52.8443C129.449 53.6465 129.71 54.6227 129.71 55.773C129.71 56.893 129.449 57.8616 128.927 58.6789C128.419 59.4811 127.688 60.1016 126.733 60.5406C125.778 60.9795 124.636 61.1989 123.308 61.1989H118.362L119.1 60.4043V66.2162H117.444ZM119.1 60.5406L118.362 59.7233H123.264C124.83 59.7233 126.017 59.3827 126.823 58.7016C127.643 58.0054 128.054 57.0292 128.054 55.773C128.054 54.5016 127.643 53.5179 126.823 52.8216C126.017 52.1254 124.83 51.7773 123.264 51.7773H118.362L119.1 50.9827V60.5406ZM135.681 66.2162V51.3233L136.129 51.7773H130.175V50.3243H142.822V51.7773H136.89L137.316 51.3233V66.2162H135.681ZM142.636 66.2162L149.799 50.3243H151.433L158.596 66.2162H156.85L150.269 51.3006H150.941L144.36 66.2162H142.636ZM145.457 61.9708L145.949 60.6087H155.059L155.552 61.9708H145.457ZM161.599 66.2162V50.3243H174.783V66.2162H173.149V51.3233L173.574 51.7773H162.808L163.233 51.3233V66.2162H161.599Z" fill="#373737"/>
</svg>
